<svg width="186" height="475" viewBox="0 0 186 475" fill="none" xmlns="http://www.w3.org/2000/svg">
<path d="M-160.586 335.294L-251 380.811C-228.964 409.353 -200.932 432.187 -166.905 449.312C-133.203 466.437 -96.5836 475 -57.0478 475C-12.327 475 28.505 464.334 65.4483 443.003C102.067 421.671 131.395 393.129 153.432 357.377C175.144 321.324 186 281.515 186 237.951C186 204.902 179.681 174.107 167.042 145.564C154.404 116.722 137.066 91.4848 115.03 69.8529C92.6696 47.9206 66.7445 30.7954 37.2547 18.4772C7.76492 6.15907 -23.6693 0 -57.0478 0C-96.5836 0 -133.203 8.56261 -166.905 25.6878C-200.932 42.8131 -228.964 65.797 -251 94.6395L-160.586 140.157C-146.976 125.134 -131.096 113.718 -112.949 105.906C-94.8012 97.7941 -76.1676 93.7381 -57.0478 93.7381C-30.4746 93.7381 -6.33185 100.498 15.3804 114.018C36.7686 127.238 53.782 144.813 66.4205 166.746C78.7349 188.378 84.8921 212.113 84.8921 237.951C84.8921 263.488 78.5729 287.223 65.9344 309.156C53.2959 330.787 36.2825 348.213 14.8943 361.433C-6.81795 374.652 -30.7987 381.262 -57.0478 381.262C-77.1398 381.262 -96.2596 377.056 -114.407 368.643C-132.555 360.231 -147.948 349.114 -160.586 335.294Z" fill="white"/>
</svg>
