<svg width="102" height="475" viewBox="0 0 102 475" fill="none" xmlns="http://www.w3.org/2000/svg">
<path d="M346.586 335.294L437 380.811C414.964 409.353 386.932 432.187 352.905 449.312C319.203 466.437 282.584 475 243.048 475C198.327 475 157.495 464.334 120.552 443.003C83.9325 421.671 54.6047 393.129 32.5684 357.377C10.8561 321.324 0 281.515 0 237.951C0 204.902 6.31924 174.107 18.9577 145.564C31.5962 116.722 48.9336 91.4848 70.97 69.8529C93.3304 47.9206 119.255 30.7954 148.745 18.4772C178.235 6.15907 209.669 0 243.048 0C282.584 0 319.203 8.56261 352.905 25.6878C386.932 42.8131 414.964 65.797 437 94.6395L346.586 140.157C332.976 125.134 317.096 113.718 298.949 105.906C280.801 97.7941 262.168 93.7381 243.048 93.7381C216.475 93.7381 192.332 100.498 170.62 114.018C149.231 127.238 132.218 144.813 119.58 166.746C107.265 188.378 101.108 212.113 101.108 237.951C101.108 263.488 107.427 287.223 120.066 309.156C132.704 330.787 149.717 348.213 171.106 361.433C192.818 374.652 216.799 381.262 243.048 381.262C263.14 381.262 282.26 377.056 300.407 368.643C318.555 360.231 333.948 349.114 346.586 335.294Z" fill="white"/>
</svg>
