<svg width="26" height="26" viewBox="0 0 26 26" fill="none" xmlns="http://www.w3.org/2000/svg">
<path fill-rule="evenodd" clip-rule="evenodd" d="M21.6961 14.7704V21.5458H17.7397V15.2155C17.7397 13.6329 17.1956 12.5449 15.7614 12.5449C14.6734 12.5449 14.0305 13.2868 13.7337 13.9791C13.6348 14.2264 13.5854 14.5726 13.5854 14.9188V21.5458H9.62891C9.62891 21.5458 9.67836 10.814 9.62891 9.72596H13.5854V11.4074C13.5854 11.4074 13.5854 11.4569 13.5359 11.4569H13.5854V11.4074C14.1294 10.6162 15.0196 9.42923 17.1462 9.42923C19.7179 9.42923 21.6961 11.1602 21.6961 14.7704ZM5.57317 4.03857C4.23786 4.03857 3.34766 4.92877 3.34766 6.06625C3.34766 7.20372 4.18841 8.09394 5.52371 8.09394H5.57317C6.95793 8.09394 7.79868 7.20373 7.79868 6.06625C7.74923 4.92877 6.90847 4.03857 5.57317 4.03857ZM3.5459 21.5458H7.45291V9.72596H3.5459V21.5458Z" fill="#A6AEB6"/>
</svg>
