<svg width="26" height="26" viewBox="0 0 26 26" fill="none" xmlns="http://www.w3.org/2000/svg">
<path fill-rule="evenodd" clip-rule="evenodd" d="M22.3481 7.09328C21.6574 7.39548 20.9666 7.61135 20.1895 7.69769C20.9666 7.2228 21.571 6.48888 21.83 5.62544C21.0961 6.05716 20.2759 6.35936 19.4556 6.53205C18.7648 5.79813 17.7719 5.32324 16.6926 5.32324C14.6203 5.32324 12.9366 7.00694 12.9366 9.07918C12.9366 9.38139 12.9798 9.68358 13.023 9.94262C9.8714 9.76993 7.10839 8.30209 5.25199 6.01399C4.90661 6.57522 4.73392 7.2228 4.73392 7.91354C4.73392 9.2087 5.3815 10.3743 6.41763 11.0651C5.81322 11.0651 5.20882 10.8924 4.69075 10.5902V10.6334C4.69075 12.4466 5.98591 14.0008 7.7128 14.3461C7.41058 14.4325 7.06521 14.4756 6.71983 14.4756C6.46081 14.4756 6.24494 14.4325 6.02909 14.3893C6.50398 15.9003 7.88548 16.9796 9.56919 17.0228C8.27403 18.0157 6.67666 18.6201 4.90661 18.6201C4.60441 18.6201 4.30221 18.6201 4 18.577C5.68371 19.6562 7.62645 20.2607 9.78505 20.2607C16.7357 20.2607 20.4917 14.5188 20.4917 9.55407C20.4917 9.38139 20.4917 9.2087 20.4917 9.07918C21.2256 8.51796 21.8732 7.8272 22.3481 7.09328Z" fill="#A6AEB6"/>
</svg>
