<svg width="26" height="26" viewBox="0 0 26 26" fill="none" xmlns="http://www.w3.org/2000/svg">
<path fill-rule="evenodd" clip-rule="evenodd" d="M13.1305 3.58398C14.3511 3.62758 15.6153 3.62758 16.8359 3.67117C17.9258 3.71476 18.9284 3.88914 19.8875 4.45585C21.1081 5.19694 21.8492 6.28678 22.1108 7.68177C22.2415 8.51004 22.2851 9.38191 22.3287 10.2102C22.3723 12.0411 22.3287 13.872 22.3287 15.703C22.3287 16.662 22.2851 17.6211 21.98 18.5365C21.3697 20.3239 20.1054 21.4137 18.2745 21.7625C17.4462 21.9368 16.5744 21.9368 15.7461 21.9804C13.9151 22.024 12.1278 21.9804 10.2969 21.9804C9.3378 21.9804 8.37874 21.9368 7.46328 21.6317C5.67593 21.0214 4.58609 19.7571 4.23734 17.9262C4.06297 17.0979 4.06297 16.2261 4.01938 15.3978C3.97578 13.5669 4.01938 11.736 4.01938 9.90504C4.01938 8.94598 4.06297 7.98693 4.36813 7.07146C4.97844 5.28413 6.24265 4.1943 8.07358 3.84555C8.90187 3.67118 9.77374 3.67118 10.602 3.62758C11.4303 3.58398 12.2586 3.58398 13.1305 3.58398ZM20.6722 12.6078C20.6286 12.6078 20.6722 12.6078 20.6722 12.6078C20.6286 11.8667 20.6286 11.1692 20.6286 10.4282C20.6286 9.73067 20.585 9.03316 20.4978 8.33567C20.3234 6.7663 19.4079 5.72006 17.8822 5.41491C17.0975 5.24054 16.2256 5.24054 15.4409 5.24054C13.8715 5.19694 12.3458 5.19694 10.7764 5.24054C9.99171 5.24054 9.20703 5.28413 8.46593 5.41491C7.15812 5.63288 6.24265 6.37397 5.85031 7.68177C5.71953 8.1177 5.67594 8.55364 5.63234 8.98957C5.58875 10.6461 5.58875 12.3027 5.58875 13.9592C5.58875 15.0055 5.63234 16.0953 5.71953 17.1416C5.85031 18.7109 6.80937 19.8007 8.37875 20.0623C9.16343 20.1931 9.99171 20.2367 10.82 20.2367C12.3458 20.2803 13.8715 20.2367 15.4409 20.2367C16.1384 20.2367 16.8359 20.1931 17.5334 20.1059C18.1873 20.0623 18.7976 19.8443 19.3208 19.4084C20.1926 18.7109 20.4978 17.7954 20.5414 16.7492C20.6286 15.4414 20.6286 14.0464 20.6722 12.6078Z" fill="#A6AEB6"/>
<path fill-rule="evenodd" clip-rule="evenodd" d="M17.8381 12.7823C17.8381 15.3979 15.7456 17.4904 13.13 17.4904C10.5144 17.4904 8.42188 15.3979 8.42188 12.7387C8.42188 10.1667 10.558 8.07422 13.1736 8.07422C15.7456 8.07422 17.8381 10.1667 17.8381 12.7823ZM13.1297 15.8338C14.7863 15.8338 16.1813 14.4388 16.1813 12.7823C16.1813 11.1257 14.7863 9.73075 13.1297 9.73075C11.4296 9.73075 10.0781 11.1257 10.0781 12.7823C10.0346 14.4388 11.4296 15.8338 13.1297 15.8338Z" fill="#A6AEB6"/>
<path d="M19.1031 7.85596C19.1031 8.46627 18.6236 8.98939 18.0133 8.98939C17.403 8.98939 16.8798 8.46627 16.9234 7.85596C16.9234 7.24565 17.403 6.76611 18.0133 6.76611C18.6236 6.76611 19.1031 7.24564 19.1031 7.85596Z" fill="#A6AEB6"/>
</svg>
