<svg width="32" height="41" viewBox="0 0 32 41" fill="none" xmlns="http://www.w3.org/2000/svg">
<path d="M17.0018 39.6186L16.9881 39.6289L16.975 39.64C16.7033 39.8724 16.3575 40.0001 16 40.0001C15.6425 40.0001 15.2967 39.8724 15.025 39.64L15.0242 39.6393C14.7094 39.3665 11.0742 36.2162 7.51493 31.782C3.9242 27.3086 0.501075 21.6374 0.5 16.3425C0.541492 12.2595 2.19245 8.3577 5.09426 5.48491C7.99666 2.61153 11.9158 0.999796 16 1H16C20.0842 0.999796 24.0033 2.61153 26.9057 5.48491C29.8076 8.3577 31.4585 12.2595 31.5 16.3425C31.4989 21.6384 28.0996 27.3101 24.522 31.7827C20.9571 36.2395 17.3123 39.388 17.0018 39.6186ZM11.8332 21.736C13.0666 22.5601 14.5166 23 16 23C17.9891 23 19.8968 22.2098 21.3033 20.8033C22.7098 19.3968 23.5 17.4891 23.5 15.5C23.5 14.0166 23.0601 12.5666 22.236 11.3332C21.4119 10.0999 20.2406 9.13856 18.8701 8.5709C17.4997 8.00325 15.9917 7.85472 14.5368 8.14411C13.082 8.4335 11.7456 9.14781 10.6967 10.1967C9.64781 11.2456 8.9335 12.582 8.64411 14.0368C8.35472 15.4917 8.50325 16.9997 9.0709 18.3701C9.63856 19.7406 10.5999 20.9119 11.8332 21.736Z" fill="#618CFB" stroke="#1F4BBC"/>
</svg>
