<svg width="264" height="268" viewBox="0 0 264 268" fill="none" xmlns="http://www.w3.org/2000/svg">
<path d="M235 103C235 159.885 188.885 206 132 206C75.1147 206 29 159.885 29 103C29 46.1147 75.1147 0 132 0C188.885 0 235 46.1147 235 103ZM80.5 103C80.5 131.443 103.557 154.5 132 154.5C160.443 154.5 183.5 131.443 183.5 103C183.5 74.5573 160.443 51.5 132 51.5C103.557 51.5 80.5 74.5573 80.5 103Z" fill="#C7D0FF"/>
<path d="M132 0C152.371 2.42927e-07 172.285 6.04084 189.224 17.3586C206.162 28.6764 219.364 44.7628 227.16 63.5836C234.955 82.4044 236.995 103.114 233.021 123.094C229.047 143.074 219.237 161.427 204.832 175.832C190.427 190.237 172.074 200.047 152.094 204.021C132.114 207.995 111.404 205.955 92.5836 198.16C73.7628 190.364 57.6764 177.162 46.3586 160.224C35.0408 143.285 29 123.371 29 103H80.5C80.5 113.186 83.5204 123.143 89.1793 131.612C94.8382 140.081 102.881 146.682 112.292 150.58C121.702 154.478 132.057 155.498 142.047 153.51C152.037 151.523 161.214 146.618 168.416 139.416C175.618 132.214 180.523 123.037 182.51 113.047C184.498 103.057 183.478 92.7022 179.58 83.2918C175.682 73.8814 169.081 65.8382 160.612 60.1793C152.143 54.5204 142.186 51.5 132 51.5V0Z" fill="#0162D3"/>
<path d="M112.86 111.5L119.412 96.452L120.684 98.468H112.164L114.108 96.284V101.06H110.052V94.7H123.972V97.676L118.044 111.5H112.86ZM130.085 111.836C128.933 111.836 127.773 111.692 126.605 111.404C125.437 111.116 124.429 110.708 123.581 110.18L125.285 106.604C125.973 107.052 126.717 107.396 127.517 107.636C128.333 107.876 129.141 107.996 129.941 107.996C130.741 107.996 131.389 107.844 131.885 107.54C132.381 107.22 132.629 106.78 132.629 106.22C132.629 105.884 132.533 105.588 132.341 105.332C132.149 105.06 131.821 104.86 131.357 104.732C130.893 104.588 130.229 104.516 129.365 104.516H124.805L125.645 94.7H136.349V98.372H127.325L129.749 96.284L129.197 102.908L126.773 100.82H130.493C132.157 100.82 133.493 101.06 134.501 101.54C135.509 102.004 136.245 102.636 136.709 103.436C137.173 104.22 137.405 105.108 137.405 106.1C137.405 107.092 137.141 108.028 136.613 108.908C136.101 109.772 135.309 110.476 134.237 111.02C133.165 111.564 131.781 111.836 130.085 111.836ZM140.121 111.5L151.593 94.7H155.049L143.577 111.5H140.121ZM141.657 103.796C140.841 103.796 140.105 103.612 139.449 103.244C138.793 102.876 138.281 102.348 137.913 101.66C137.545 100.956 137.361 100.116 137.361 99.14C137.361 98.164 137.545 97.332 137.913 96.644C138.281 95.956 138.793 95.428 139.449 95.06C140.105 94.676 140.841 94.484 141.657 94.484C142.489 94.484 143.225 94.676 143.865 95.06C144.521 95.428 145.033 95.956 145.401 96.644C145.785 97.332 145.977 98.164 145.977 99.14C145.977 100.1 145.785 100.932 145.401 101.636C145.033 102.34 144.521 102.876 143.865 103.244C143.225 103.612 142.489 103.796 141.657 103.796ZM141.681 101.516C142.081 101.516 142.409 101.332 142.665 100.964C142.937 100.596 143.073 99.988 143.073 99.14C143.073 98.292 142.937 97.684 142.665 97.316C142.409 96.948 142.081 96.764 141.681 96.764C141.281 96.764 140.937 96.948 140.649 97.316C140.377 97.684 140.241 98.292 140.241 99.14C140.241 99.988 140.377 100.596 140.649 100.964C140.937 101.332 141.281 101.516 141.681 101.516ZM153.513 111.716C152.681 111.716 151.937 111.532 151.281 111.164C150.641 110.796 150.137 110.268 149.769 109.58C149.401 108.876 149.217 108.036 149.217 107.06C149.217 106.084 149.401 105.252 149.769 104.564C150.137 103.876 150.641 103.348 151.281 102.98C151.937 102.596 152.681 102.404 153.513 102.404C154.345 102.404 155.081 102.596 155.721 102.98C156.377 103.348 156.889 103.876 157.257 104.564C157.641 105.252 157.833 106.084 157.833 107.06C157.833 108.036 157.641 108.876 157.257 109.58C156.889 110.268 156.377 110.796 155.721 111.164C155.081 111.532 154.345 111.716 153.513 111.716ZM153.513 109.436C153.913 109.436 154.249 109.252 154.521 108.884C154.793 108.516 154.929 107.908 154.929 107.06C154.929 106.212 154.793 105.604 154.521 105.236C154.249 104.868 153.913 104.684 153.513 104.684C153.129 104.684 152.793 104.868 152.505 105.236C152.233 105.604 152.097 106.212 152.097 107.06C152.097 107.908 152.233 108.516 152.505 108.884C152.793 109.252 153.129 109.436 153.513 109.436Z" fill="#0162D3"/>
<rect y="223.5" width="10" height="10" fill="#0162D3"/>
<path d="M22.448 232.936L22.938 231.9C23.3673 232.236 23.8387 232.488 24.352 232.656C24.8747 232.824 25.3927 232.913 25.906 232.922C26.4193 232.922 26.8907 232.852 27.32 232.712C27.7587 232.572 28.1087 232.362 28.37 232.082C28.6313 231.802 28.762 231.457 28.762 231.046C28.762 230.542 28.5567 230.159 28.146 229.898C27.7447 229.637 27.1847 229.506 26.466 229.506H24.282V228.372H26.368C26.9933 228.372 27.4787 228.246 27.824 227.994C28.1787 227.733 28.356 227.373 28.356 226.916C28.356 226.571 28.2487 226.281 28.034 226.048C27.8287 225.805 27.544 225.623 27.18 225.502C26.8253 225.381 26.4193 225.32 25.962 225.32C25.514 225.311 25.052 225.371 24.576 225.502C24.1 225.623 23.6427 225.819 23.204 226.09L22.756 224.942C23.3533 224.606 23.974 224.373 24.618 224.242C25.2713 224.102 25.9013 224.06 26.508 224.116C27.1147 224.163 27.6607 224.303 28.146 224.536C28.6407 224.76 29.0327 225.059 29.322 225.432C29.6207 225.796 29.77 226.235 29.77 226.748C29.77 227.215 29.6487 227.63 29.406 227.994C29.1633 228.349 28.8273 228.624 28.398 228.82C27.9687 229.007 27.4693 229.1 26.9 229.1L26.956 228.722C27.6093 228.722 28.174 228.829 28.65 229.044C29.1353 229.249 29.5087 229.543 29.77 229.926C30.0407 230.309 30.176 230.752 30.176 231.256C30.176 231.732 30.0547 232.157 29.812 232.53C29.5693 232.894 29.238 233.202 28.818 233.454C28.4073 233.697 27.936 233.874 27.404 233.986C26.8813 234.098 26.3307 234.135 25.752 234.098C25.1733 234.061 24.5993 233.949 24.03 233.762C23.47 233.575 22.9427 233.3 22.448 232.936ZM36.4144 234V232.432L36.3444 232.138V229.464C36.3444 228.895 36.1764 228.456 35.8404 228.148C35.5138 227.831 35.0191 227.672 34.3564 227.672C33.9178 227.672 33.4884 227.747 33.0684 227.896C32.6484 228.036 32.2938 228.227 32.0044 228.47L31.4444 227.462C31.8271 227.154 32.2844 226.921 32.8164 226.762C33.3578 226.594 33.9224 226.51 34.5104 226.51C35.5278 226.51 36.3118 226.757 36.8624 227.252C37.4131 227.747 37.6884 228.503 37.6884 229.52V234H36.4144ZM33.9784 234.084C33.4278 234.084 32.9424 233.991 32.5224 233.804C32.1118 233.617 31.7944 233.361 31.5704 233.034C31.3464 232.698 31.2344 232.32 31.2344 231.9C31.2344 231.499 31.3278 231.135 31.5144 230.808C31.7104 230.481 32.0231 230.22 32.4524 230.024C32.8911 229.828 33.4791 229.73 34.2164 229.73H36.5684V230.696H34.2724C33.6004 230.696 33.1478 230.808 32.9144 231.032C32.6811 231.256 32.5644 231.527 32.5644 231.844C32.5644 232.208 32.7091 232.502 32.9984 232.726C33.2878 232.941 33.6891 233.048 34.2024 233.048C34.7064 233.048 35.1451 232.936 35.5184 232.712C35.9011 232.488 36.1764 232.161 36.3444 231.732L36.6104 232.656C36.4331 233.095 36.1204 233.445 35.6724 233.706C35.2244 233.958 34.6598 234.084 33.9784 234.084ZM39.6886 234V226.58H43.1326C44.0006 226.58 44.6819 226.748 45.1766 227.084C45.6806 227.411 45.9326 227.877 45.9326 228.484C45.9326 229.091 45.6946 229.562 45.2186 229.898C44.7519 230.225 44.1312 230.388 43.3566 230.388L43.5666 230.024C44.4532 230.024 45.1112 230.187 45.5406 230.514C45.9699 230.841 46.1846 231.321 46.1846 231.956C46.1846 232.6 45.9419 233.104 45.4566 233.468C44.9806 233.823 44.2479 234 43.2586 234H39.6886ZM41.0046 232.964H43.1606C43.7206 232.964 44.1406 232.88 44.4206 232.712C44.7006 232.535 44.8406 232.255 44.8406 231.872C44.8406 231.48 44.7099 231.195 44.4486 231.018C44.1966 230.831 43.7952 230.738 43.2446 230.738H41.0046V232.964ZM41.0046 229.772H43.0206C43.5339 229.772 43.9212 229.679 44.1826 229.492C44.4532 229.296 44.5886 229.025 44.5886 228.68C44.5886 228.325 44.4532 228.059 44.1826 227.882C43.9212 227.705 43.5339 227.616 43.0206 227.616H41.0046V229.772ZM51.1722 234.084C50.3788 234.084 49.6788 233.921 49.0722 233.594C48.4748 233.267 48.0082 232.819 47.6722 232.25C47.3455 231.681 47.1822 231.027 47.1822 230.29C47.1822 229.553 47.3408 228.899 47.6582 228.33C47.9848 227.761 48.4282 227.317 48.9882 227C49.5575 226.673 50.1968 226.51 50.9062 226.51C51.6248 226.51 52.2595 226.669 52.8102 226.986C53.3608 227.303 53.7902 227.751 54.0982 228.33C54.4155 228.899 54.5742 229.567 54.5742 230.332C54.5742 230.388 54.5695 230.453 54.5602 230.528C54.5602 230.603 54.5555 230.673 54.5462 230.738H48.2322V229.772H53.8462L53.3002 230.108C53.3095 229.632 53.2115 229.207 53.0062 228.834C52.8008 228.461 52.5162 228.171 52.1522 227.966C51.7975 227.751 51.3822 227.644 50.9062 227.644C50.4395 227.644 50.0242 227.751 49.6602 227.966C49.2962 228.171 49.0115 228.465 48.8062 228.848C48.6008 229.221 48.4982 229.651 48.4982 230.136V230.36C48.4982 230.855 48.6102 231.298 48.8342 231.69C49.0675 232.073 49.3895 232.371 49.8002 232.586C50.2108 232.801 50.6822 232.908 51.2142 232.908C51.6528 232.908 52.0495 232.833 52.4042 232.684C52.7682 232.535 53.0855 232.311 53.3562 232.012L54.0982 232.88C53.7622 233.272 53.3422 233.571 52.8382 233.776C52.3435 233.981 51.7882 234.084 51.1722 234.084ZM60.1732 234.084C59.5572 234.084 58.9925 233.944 58.4792 233.664C57.9752 233.375 57.5692 232.95 57.2612 232.39C56.9625 231.83 56.8132 231.13 56.8132 230.29C56.8132 229.45 56.9579 228.75 57.2472 228.19C57.5459 227.63 57.9472 227.21 58.4512 226.93C58.9645 226.65 59.5385 226.51 60.1732 226.51C60.9012 226.51 61.5452 226.669 62.1052 226.986C62.6652 227.303 63.1085 227.747 63.4352 228.316C63.7619 228.876 63.9252 229.534 63.9252 230.29C63.9252 231.046 63.7619 231.709 63.4352 232.278C63.1085 232.847 62.6652 233.291 62.1052 233.608C61.5452 233.925 60.9012 234.084 60.1732 234.084ZM56.2392 236.716V226.58H57.5272V228.582L57.4432 230.304L57.5832 232.026V236.716H56.2392ZM60.0612 232.908C60.5372 232.908 60.9619 232.801 61.3352 232.586C61.7179 232.371 62.0165 232.068 62.2312 231.676C62.4552 231.275 62.5672 230.813 62.5672 230.29C62.5672 229.758 62.4552 229.301 62.2312 228.918C62.0165 228.526 61.7179 228.223 61.3352 228.008C60.9619 227.793 60.5372 227.686 60.0612 227.686C59.5945 227.686 59.1699 227.793 58.7872 228.008C58.4139 228.223 58.1152 228.526 57.8912 228.918C57.6765 229.301 57.5692 229.758 57.5692 230.29C57.5692 230.813 57.6765 231.275 57.8912 231.676C58.1152 232.068 58.4139 232.371 58.7872 232.586C59.1699 232.801 59.5945 232.908 60.0612 232.908ZM70.3859 232.824L70.0779 233.174V226.58H71.4219V233.174L71.0859 232.824H75.0059L74.6839 233.174V226.58H76.0279V234H65.4579V226.58H66.8019V233.174L66.4799 232.824H70.3859ZM81.5215 234.084C80.7282 234.084 80.0282 233.921 79.4215 233.594C78.8242 233.267 78.3575 232.819 78.0215 232.25C77.6949 231.681 77.5315 231.027 77.5315 230.29C77.5315 229.553 77.6902 228.899 78.0075 228.33C78.3342 227.761 78.7775 227.317 79.3375 227C79.9069 226.673 80.5462 226.51 81.2555 226.51C81.9742 226.51 82.6089 226.669 83.1595 226.986C83.7102 227.303 84.1395 227.751 84.4475 228.33C84.7649 228.899 84.9235 229.567 84.9235 230.332C84.9235 230.388 84.9189 230.453 84.9095 230.528C84.9095 230.603 84.9049 230.673 84.8955 230.738H78.5815V229.772H84.1955L83.6495 230.108C83.6589 229.632 83.5609 229.207 83.3555 228.834C83.1502 228.461 82.8655 228.171 82.5015 227.966C82.1469 227.751 81.7315 227.644 81.2555 227.644C80.7889 227.644 80.3735 227.751 80.0095 227.966C79.6455 228.171 79.3609 228.465 79.1555 228.848C78.9502 229.221 78.8475 229.651 78.8475 230.136V230.36C78.8475 230.855 78.9595 231.298 79.1835 231.69C79.4169 232.073 79.7389 232.371 80.1495 232.586C80.5602 232.801 81.0315 232.908 81.5635 232.908C82.0022 232.908 82.3989 232.833 82.7535 232.684C83.1175 232.535 83.4349 232.311 83.7055 232.012L84.4475 232.88C84.1115 233.272 83.6915 233.571 83.1875 233.776C82.6929 233.981 82.1375 234.084 81.5215 234.084ZM86.5886 234V226.58H87.9326V229.73H92.1606V226.58H93.5046V234H92.1606V230.892H87.9326V234H86.5886ZM95.6979 234V226.58H97.0419V231.984L101.592 226.58H102.81V234H101.466V228.596L96.9299 234H95.6979ZM108.303 234.084C107.509 234.084 106.809 233.921 106.203 233.594C105.605 233.267 105.139 232.819 104.803 232.25C104.476 231.681 104.313 231.027 104.313 230.29C104.313 229.553 104.471 228.899 104.789 228.33C105.115 227.761 105.559 227.317 106.119 227C106.688 226.673 107.327 226.51 108.037 226.51C108.755 226.51 109.39 226.669 109.941 226.986C110.491 227.303 110.921 227.751 111.229 228.33C111.546 228.899 111.705 229.567 111.705 230.332C111.705 230.388 111.7 230.453 111.691 230.528C111.691 230.603 111.686 230.673 111.677 230.738H105.363V229.772H110.977L110.431 230.108C110.44 229.632 110.342 229.207 110.137 228.834C109.931 228.461 109.647 228.171 109.283 227.966C108.928 227.751 108.513 227.644 108.037 227.644C107.57 227.644 107.155 227.751 106.791 227.966C106.427 228.171 106.142 228.465 105.937 228.848C105.731 229.221 105.629 229.651 105.629 230.136V230.36C105.629 230.855 105.741 231.298 105.965 231.69C106.198 232.073 106.52 232.371 106.931 232.586C107.341 232.801 107.813 232.908 108.345 232.908C108.783 232.908 109.18 232.833 109.535 232.684C109.899 232.535 110.216 232.311 110.487 232.012L111.229 232.88C110.893 233.272 110.473 233.571 109.969 233.776C109.474 233.981 108.919 234.084 108.303 234.084Z" fill="#232323"/>
<path d="M239.384 234L243.542 224.788L243.906 225.418H238.082L238.782 224.732V227.168H237.438V224.2H244.83V225.152L240.868 234H239.384ZM248.555 234.112C247.864 234.112 247.192 234.005 246.539 233.79C245.895 233.575 245.367 233.286 244.957 232.922L245.601 231.816C245.927 232.124 246.352 232.376 246.875 232.572C247.397 232.768 247.953 232.866 248.541 232.866C249.287 232.866 249.861 232.707 250.263 232.39C250.664 232.073 250.865 231.648 250.865 231.116C250.865 230.752 250.776 230.435 250.599 230.164C250.421 229.893 250.113 229.688 249.675 229.548C249.245 229.399 248.653 229.324 247.897 229.324H245.671L246.189 224.2H251.719V225.418H246.707L247.435 224.732L247.029 228.778L246.301 228.106H248.191C249.171 228.106 249.959 228.232 250.557 228.484C251.154 228.736 251.588 229.086 251.859 229.534C252.129 229.973 252.265 230.481 252.265 231.06C252.265 231.62 252.129 232.133 251.859 232.6C251.588 233.057 251.177 233.426 250.627 233.706C250.085 233.977 249.395 234.112 248.555 234.112ZM254.217 234L260.909 224.2H261.987L255.295 234H254.217ZM255.001 229.464C254.553 229.464 254.157 229.352 253.811 229.128C253.466 228.904 253.195 228.591 252.999 228.19C252.813 227.789 252.719 227.322 252.719 226.79C252.719 226.258 252.813 225.791 252.999 225.39C253.195 224.989 253.466 224.676 253.811 224.452C254.157 224.228 254.553 224.116 255.001 224.116C255.459 224.116 255.855 224.228 256.191 224.452C256.537 224.676 256.803 224.989 256.989 225.39C257.176 225.791 257.269 226.258 257.269 226.79C257.269 227.322 257.176 227.789 256.989 228.19C256.803 228.591 256.537 228.904 256.191 229.128C255.855 229.352 255.459 229.464 255.001 229.464ZM255.001 228.666C255.431 228.666 255.767 228.503 256.009 228.176C256.252 227.84 256.373 227.378 256.373 226.79C256.373 226.202 256.252 225.745 256.009 225.418C255.767 225.082 255.431 224.914 255.001 224.914C254.581 224.914 254.245 225.082 253.993 225.418C253.751 225.745 253.629 226.202 253.629 226.79C253.629 227.369 253.751 227.826 253.993 228.162C254.245 228.498 254.581 228.666 255.001 228.666ZM261.203 234.084C260.755 234.084 260.359 233.972 260.013 233.748C259.668 233.524 259.402 233.211 259.215 232.81C259.029 232.409 258.935 231.942 258.935 231.41C258.935 230.878 259.029 230.411 259.215 230.01C259.402 229.609 259.668 229.296 260.013 229.072C260.359 228.848 260.755 228.736 261.203 228.736C261.661 228.736 262.057 228.848 262.393 229.072C262.739 229.296 263.005 229.609 263.191 230.01C263.387 230.411 263.485 230.878 263.485 231.41C263.485 231.942 263.387 232.409 263.191 232.81C263.005 233.211 262.739 233.524 262.393 233.748C262.057 233.972 261.661 234.084 261.203 234.084ZM261.203 233.286C261.623 233.286 261.955 233.123 262.197 232.796C262.449 232.46 262.575 231.998 262.575 231.41C262.575 230.831 262.449 230.374 262.197 230.038C261.955 229.702 261.623 229.534 261.203 229.534C260.783 229.534 260.447 229.702 260.195 230.038C259.953 230.365 259.831 230.822 259.831 231.41C259.831 231.998 259.953 232.46 260.195 232.796C260.447 233.123 260.783 233.286 261.203 233.286Z" fill="#232323"/>
<rect y="252.5" width="10" height="10" fill="#C7D0FF"/>
<path d="M27.936 263.112C27.1893 263.112 26.494 262.986 25.85 262.734C25.2153 262.482 24.6647 262.132 24.198 261.684C23.7313 261.227 23.3673 260.695 23.106 260.088C22.8447 259.481 22.714 258.819 22.714 258.1C22.714 257.381 22.8447 256.719 23.106 256.112C23.3673 255.505 23.7313 254.978 24.198 254.53C24.6647 254.073 25.2153 253.718 25.85 253.466C26.4847 253.214 27.18 253.088 27.936 253.088C28.6827 253.088 29.3687 253.214 29.994 253.466C30.6287 253.709 31.1793 254.059 31.646 254.516C32.122 254.964 32.486 255.491 32.738 256.098C32.9993 256.705 33.13 257.372 33.13 258.1C33.13 258.828 32.9993 259.495 32.738 260.102C32.486 260.709 32.122 261.241 31.646 261.698C31.1793 262.146 30.6287 262.496 29.994 262.748C29.3687 262.991 28.6827 263.112 27.936 263.112ZM27.936 261.866C28.4773 261.866 28.9767 261.773 29.434 261.586C29.9007 261.399 30.302 261.138 30.638 260.802C30.9833 260.457 31.2493 260.055 31.436 259.598C31.632 259.141 31.73 258.641 31.73 258.1C31.73 257.559 31.632 257.059 31.436 256.602C31.2493 256.145 30.9833 255.748 30.638 255.412C30.302 255.067 29.9007 254.801 29.434 254.614C28.9767 254.427 28.4773 254.334 27.936 254.334C27.3853 254.334 26.8767 254.427 26.41 254.614C25.9527 254.801 25.5513 255.067 25.206 255.412C24.8607 255.748 24.59 256.145 24.394 256.602C24.2073 257.059 24.114 257.559 24.114 258.1C24.114 258.641 24.2073 259.141 24.394 259.598C24.59 260.055 24.8607 260.457 25.206 260.802C25.5513 261.138 25.9527 261.399 26.41 261.586C26.8767 261.773 27.3853 261.866 27.936 261.866ZM38.1792 263.112C37.5632 263.112 37.0172 263.014 36.5412 262.818C36.0745 262.622 35.6732 262.333 35.3372 261.95C35.0012 261.558 34.7445 261.068 34.5672 260.48C34.3992 259.883 34.3152 259.183 34.3152 258.38C34.3152 257.745 34.3712 257.176 34.4832 256.672C34.5952 256.168 34.7539 255.72 34.9592 255.328C35.1739 254.936 35.4352 254.595 35.7432 254.306C36.0605 254.017 36.4152 253.779 36.8072 253.592C37.2085 253.396 37.6472 253.247 38.1232 253.144L41.5112 252.388L41.7072 253.634L38.5852 254.306C38.3985 254.343 38.1745 254.399 37.9132 254.474C37.6519 254.549 37.3859 254.665 37.1152 254.824C36.8445 254.973 36.5925 255.183 36.3592 255.454C36.1259 255.725 35.9392 256.079 35.7992 256.518C35.6592 256.947 35.5892 257.479 35.5892 258.114C35.5892 258.291 35.5939 258.427 35.6032 258.52C35.6125 258.613 35.6219 258.707 35.6312 258.8C35.6499 258.893 35.6639 259.033 35.6732 259.22L35.1132 258.646C35.2625 258.133 35.5005 257.685 35.8272 257.302C36.1539 256.919 36.5459 256.625 37.0032 256.42C37.4699 256.205 37.9785 256.098 38.5292 256.098C39.2199 256.098 39.8312 256.247 40.3632 256.546C40.9045 256.845 41.3292 257.255 41.6372 257.778C41.9452 258.301 42.0992 258.898 42.0992 259.57C42.0992 260.251 41.9359 260.863 41.6092 261.404C41.2919 261.936 40.8392 262.356 40.2512 262.664C39.6632 262.963 38.9725 263.112 38.1792 263.112ZM38.3052 261.992C38.7812 261.992 39.2012 261.889 39.5652 261.684C39.9292 261.469 40.2139 261.185 40.4192 260.83C40.6245 260.466 40.7272 260.06 40.7272 259.612C40.7272 259.164 40.6245 258.767 40.4192 258.422C40.2139 258.077 39.9292 257.806 39.5652 257.61C39.2012 257.405 38.7719 257.302 38.2772 257.302C37.8105 257.302 37.3905 257.4 37.0172 257.596C36.6439 257.783 36.3545 258.049 36.1492 258.394C35.9439 258.73 35.8412 259.122 35.8412 259.57C35.8412 260.018 35.9439 260.429 36.1492 260.802C36.3639 261.166 36.6532 261.455 37.0172 261.67C37.3905 261.885 37.8199 261.992 38.3052 261.992ZM48.5267 261.824L48.2187 262.174V255.58H49.5627V262.174L49.2267 261.824H53.1467L52.8247 262.174V255.58H54.1687V263H43.5987V255.58H44.9427V262.174L44.6207 261.824H48.5267ZM54.0007 264.582V262.65L54.3227 263H52.7547V261.824H55.2607V264.582H54.0007ZM59.6624 263.084C58.8691 263.084 58.1691 262.921 57.5624 262.594C56.9651 262.267 56.4984 261.819 56.1624 261.25C55.8357 260.681 55.6724 260.027 55.6724 259.29C55.6724 258.553 55.8311 257.899 56.1484 257.33C56.4751 256.761 56.9184 256.317 57.4784 256C58.0477 255.673 58.6871 255.51 59.3964 255.51C60.1151 255.51 60.7497 255.669 61.3004 255.986C61.8511 256.303 62.2804 256.751 62.5884 257.33C62.9057 257.899 63.0644 258.567 63.0644 259.332C63.0644 259.388 63.0597 259.453 63.0504 259.528C63.0504 259.603 63.0457 259.673 63.0364 259.738H56.7224V258.772H62.3364L61.7904 259.108C61.7997 258.632 61.7017 258.207 61.4964 257.834C61.2911 257.461 61.0064 257.171 60.6424 256.966C60.2877 256.751 59.8724 256.644 59.3964 256.644C58.9297 256.644 58.5144 256.751 58.1504 256.966C57.7864 257.171 57.5017 257.465 57.2964 257.848C57.0911 258.221 56.9884 258.651 56.9884 259.136V259.36C56.9884 259.855 57.1004 260.298 57.3244 260.69C57.5577 261.073 57.8797 261.371 58.2904 261.586C58.7011 261.801 59.1724 261.908 59.7044 261.908C60.1431 261.908 60.5397 261.833 60.8944 261.684C61.2584 261.535 61.5757 261.311 61.8464 261.012L62.5884 261.88C62.2524 262.272 61.8324 262.571 61.3284 262.776C60.8337 262.981 60.2784 263.084 59.6624 263.084ZM68.0334 263.084C67.2401 263.084 66.5401 262.921 65.9334 262.594C65.3361 262.267 64.8694 261.819 64.5334 261.25C64.2068 260.681 64.0434 260.027 64.0434 259.29C64.0434 258.553 64.2021 257.899 64.5194 257.33C64.8461 256.761 65.2894 256.317 65.8494 256C66.4188 255.673 67.0581 255.51 67.7674 255.51C68.4861 255.51 69.1208 255.669 69.6714 255.986C70.2221 256.303 70.6514 256.751 70.9594 257.33C71.2768 257.899 71.4354 258.567 71.4354 259.332C71.4354 259.388 71.4308 259.453 71.4214 259.528C71.4214 259.603 71.4168 259.673 71.4074 259.738H65.0934V258.772H70.7074L70.1614 259.108C70.1708 258.632 70.0728 258.207 69.8674 257.834C69.6621 257.461 69.3774 257.171 69.0134 256.966C68.6588 256.751 68.2434 256.644 67.7674 256.644C67.3008 256.644 66.8854 256.751 66.5214 256.966C66.1574 257.171 65.8728 257.465 65.6674 257.848C65.4621 258.221 65.3594 258.651 65.3594 259.136V259.36C65.3594 259.855 65.4714 260.298 65.6954 260.69C65.9288 261.073 66.2508 261.371 66.6614 261.586C67.0721 261.801 67.5434 261.908 68.0754 261.908C68.5141 261.908 68.9108 261.833 69.2654 261.684C69.6294 261.535 69.9468 261.311 70.2174 261.012L70.9594 261.88C70.6234 262.272 70.2034 262.571 69.6994 262.776C69.2048 262.981 68.6494 263.084 68.0334 263.084Z" fill="#232323"/>
<path d="M231.928 263V253.76L232.53 254.418H229.716V253.2H233.314V263H231.928ZM239.041 263.112C238.276 263.112 237.59 262.916 236.983 262.524C236.386 262.132 235.91 261.563 235.555 260.816C235.21 260.069 235.037 259.164 235.037 258.1C235.037 257.036 235.21 256.131 235.555 255.384C235.91 254.637 236.386 254.068 236.983 253.676C237.59 253.284 238.276 253.088 239.041 253.088C239.797 253.088 240.479 253.284 241.085 253.676C241.692 254.068 242.168 254.637 242.513 255.384C242.859 256.131 243.031 257.036 243.031 258.1C243.031 259.164 242.859 260.069 242.513 260.816C242.168 261.563 241.692 262.132 241.085 262.524C240.479 262.916 239.797 263.112 239.041 263.112ZM239.041 261.866C239.555 261.866 240.003 261.726 240.385 261.446C240.777 261.166 241.081 260.746 241.295 260.186C241.519 259.626 241.631 258.931 241.631 258.1C241.631 257.269 241.519 256.574 241.295 256.014C241.081 255.454 240.777 255.034 240.385 254.754C240.003 254.474 239.555 254.334 239.041 254.334C238.528 254.334 238.075 254.474 237.683 254.754C237.291 255.034 236.983 255.454 236.759 256.014C236.545 256.574 236.437 257.269 236.437 258.1C236.437 258.931 236.545 259.626 236.759 260.186C236.983 260.746 237.291 261.166 237.683 261.446C238.075 261.726 238.528 261.866 239.041 261.866ZM247.959 263.112C247.194 263.112 246.508 262.916 245.901 262.524C245.304 262.132 244.828 261.563 244.473 260.816C244.128 260.069 243.955 259.164 243.955 258.1C243.955 257.036 244.128 256.131 244.473 255.384C244.828 254.637 245.304 254.068 245.901 253.676C246.508 253.284 247.194 253.088 247.959 253.088C248.715 253.088 249.397 253.284 250.003 253.676C250.61 254.068 251.086 254.637 251.431 255.384C251.777 256.131 251.949 257.036 251.949 258.1C251.949 259.164 251.777 260.069 251.431 260.816C251.086 261.563 250.61 262.132 250.003 262.524C249.397 262.916 248.715 263.112 247.959 263.112ZM247.959 261.866C248.473 261.866 248.921 261.726 249.303 261.446C249.695 261.166 249.999 260.746 250.213 260.186C250.437 259.626 250.549 258.931 250.549 258.1C250.549 257.269 250.437 256.574 250.213 256.014C249.999 255.454 249.695 255.034 249.303 254.754C248.921 254.474 248.473 254.334 247.959 254.334C247.446 254.334 246.993 254.474 246.601 254.754C246.209 255.034 245.901 255.454 245.677 256.014C245.463 256.574 245.355 257.269 245.355 258.1C245.355 258.931 245.463 259.626 245.677 260.186C245.901 260.746 246.209 261.166 246.601 261.446C246.993 261.726 247.446 261.866 247.959 261.866ZM254.217 263L260.909 253.2H261.987L255.295 263H254.217ZM255.001 258.464C254.553 258.464 254.157 258.352 253.811 258.128C253.466 257.904 253.195 257.591 252.999 257.19C252.813 256.789 252.719 256.322 252.719 255.79C252.719 255.258 252.813 254.791 252.999 254.39C253.195 253.989 253.466 253.676 253.811 253.452C254.157 253.228 254.553 253.116 255.001 253.116C255.459 253.116 255.855 253.228 256.191 253.452C256.537 253.676 256.803 253.989 256.989 254.39C257.176 254.791 257.269 255.258 257.269 255.79C257.269 256.322 257.176 256.789 256.989 257.19C256.803 257.591 256.537 257.904 256.191 258.128C255.855 258.352 255.459 258.464 255.001 258.464ZM255.001 257.666C255.431 257.666 255.767 257.503 256.009 257.176C256.252 256.84 256.373 256.378 256.373 255.79C256.373 255.202 256.252 254.745 256.009 254.418C255.767 254.082 255.431 253.914 255.001 253.914C254.581 253.914 254.245 254.082 253.993 254.418C253.751 254.745 253.629 255.202 253.629 255.79C253.629 256.369 253.751 256.826 253.993 257.162C254.245 257.498 254.581 257.666 255.001 257.666ZM261.203 263.084C260.755 263.084 260.359 262.972 260.013 262.748C259.668 262.524 259.402 262.211 259.215 261.81C259.029 261.409 258.935 260.942 258.935 260.41C258.935 259.878 259.029 259.411 259.215 259.01C259.402 258.609 259.668 258.296 260.013 258.072C260.359 257.848 260.755 257.736 261.203 257.736C261.661 257.736 262.057 257.848 262.393 258.072C262.739 258.296 263.005 258.609 263.191 259.01C263.387 259.411 263.485 259.878 263.485 260.41C263.485 260.942 263.387 261.409 263.191 261.81C263.005 262.211 262.739 262.524 262.393 262.748C262.057 262.972 261.661 263.084 261.203 263.084ZM261.203 262.286C261.623 262.286 261.955 262.123 262.197 261.796C262.449 261.46 262.575 260.998 262.575 260.41C262.575 259.831 262.449 259.374 262.197 259.038C261.955 258.702 261.623 258.534 261.203 258.534C260.783 258.534 260.447 258.702 260.195 259.038C259.953 259.365 259.831 259.822 259.831 260.41C259.831 260.998 259.953 261.46 260.195 261.796C260.447 262.123 260.783 262.286 261.203 262.286Z" fill="#232323"/>
</svg>
