<svg width="48" height="49" viewBox="0 0 48 49" fill="none" xmlns="http://www.w3.org/2000/svg">
<rect y="0.5" width="48" height="48" rx="4" fill="#0B4678"/>
<path d="M8.104 29.5C7.936 29.5 7.808 29.448 7.72 29.344C7.632 29.24 7.584 29.12 7.576 28.984C7.576 28.84 7.624 28.708 7.72 28.588L10.78 24.46L11.284 24.04L14.056 20.308C14.16 20.188 14.3 20.128 14.476 20.128C14.628 20.128 14.748 20.176 14.836 20.272C14.924 20.368 14.972 20.488 14.98 20.632C14.988 20.768 14.948 20.896 14.86 21.016L11.932 24.952L11.464 25.36L8.5 29.332C8.388 29.444 8.256 29.5 8.104 29.5ZM14.464 29.5C14.376 29.5 14.296 29.484 14.224 29.452C14.152 29.42 14.088 29.368 14.032 29.296L11.164 25.312L10.744 24.988L7.888 21.016C7.8 20.896 7.76 20.768 7.768 20.632C7.784 20.496 7.836 20.38 7.924 20.284C8.02 20.18 8.144 20.128 8.296 20.128C8.48 20.128 8.616 20.188 8.704 20.308L11.428 24.076L11.836 24.4L14.86 28.588C14.948 28.708 14.988 28.84 14.98 28.984C14.98 29.128 14.932 29.252 14.836 29.356C14.748 29.452 14.624 29.5 14.464 29.5ZM17.5067 29.5C17.3547 29.5 17.2227 29.448 17.1107 29.344C17.0067 29.232 16.9547 29.096 16.9547 28.936V20.692C16.9547 20.532 17.0067 20.4 17.1107 20.296C17.2227 20.184 17.3547 20.128 17.5067 20.128C17.6667 20.128 17.7987 20.184 17.9027 20.296C18.0147 20.4 18.0707 20.532 18.0707 20.692V28.396H22.5587C22.7107 28.396 22.8427 28.448 22.9547 28.552C23.0667 28.656 23.1227 28.788 23.1227 28.948C23.1227 29.1 23.0667 29.232 22.9547 29.344C22.8427 29.448 22.7107 29.5 22.5587 29.5H17.5067ZM27.7587 29.62C27.2467 29.62 26.7627 29.544 26.3067 29.392C25.8587 29.232 25.4667 29.012 25.1307 28.732C24.7947 28.452 24.5467 28.124 24.3867 27.748C24.3067 27.596 24.3027 27.456 24.3747 27.328C24.4547 27.2 24.5827 27.116 24.7587 27.076C24.8947 27.044 25.0267 27.064 25.1547 27.136C25.2827 27.2 25.3787 27.3 25.4427 27.436C25.5467 27.652 25.7107 27.848 25.9347 28.024C26.1587 28.192 26.4267 28.328 26.7387 28.432C27.0587 28.536 27.3987 28.588 27.7587 28.588C28.1587 28.588 28.5187 28.524 28.8388 28.396C29.1667 28.268 29.4267 28.084 29.6187 27.844C29.8187 27.596 29.9188 27.296 29.9188 26.944C29.9188 26.496 29.7467 26.1 29.4027 25.756C29.0587 25.412 28.5067 25.196 27.7467 25.108C26.7787 25.004 26.0187 24.712 25.4667 24.232C24.9147 23.752 24.6387 23.16 24.6387 22.456C24.6387 21.944 24.7787 21.508 25.0587 21.148C25.3387 20.78 25.7227 20.5 26.2107 20.308C26.6987 20.116 27.2507 20.02 27.8667 20.02C28.3307 20.02 28.7427 20.088 29.1027 20.224C29.4707 20.36 29.7867 20.548 30.0507 20.788C30.3228 21.02 30.5548 21.288 30.7468 21.592C30.8427 21.752 30.8787 21.904 30.8548 22.048C30.8387 22.184 30.7667 22.292 30.6388 22.372C30.4948 22.452 30.3428 22.468 30.1828 22.42C30.0307 22.372 29.9147 22.28 29.8347 22.144C29.7147 21.928 29.5627 21.74 29.3787 21.58C29.1947 21.42 28.9747 21.292 28.7187 21.196C28.4707 21.1 28.1747 21.052 27.8307 21.052C27.2227 21.044 26.7227 21.164 26.3307 21.412C25.9387 21.652 25.7427 22.016 25.7427 22.504C25.7427 22.76 25.8067 23 25.9347 23.224C26.0707 23.44 26.3027 23.632 26.6307 23.8C26.9667 23.96 27.4347 24.076 28.0347 24.148C29.0027 24.26 29.7427 24.556 30.2548 25.036C30.7668 25.508 31.0228 26.132 31.0228 26.908C31.0228 27.356 30.9348 27.748 30.7587 28.084C30.5907 28.42 30.3547 28.704 30.0507 28.936C29.7467 29.16 29.3947 29.332 28.9947 29.452C28.6027 29.564 28.1907 29.62 27.7587 29.62ZM33.0556 29.5C32.8876 29.5 32.7596 29.448 32.6716 29.344C32.5836 29.24 32.5356 29.12 32.5276 28.984C32.5276 28.84 32.5756 28.708 32.6716 28.588L35.7316 24.46L36.2356 24.04L39.0076 20.308C39.1116 20.188 39.2516 20.128 39.4276 20.128C39.5796 20.128 39.6996 20.176 39.7876 20.272C39.8756 20.368 39.9236 20.488 39.9316 20.632C39.9396 20.768 39.8996 20.896 39.8116 21.016L36.8836 24.952L36.4156 25.36L33.4516 29.332C33.3396 29.444 33.2076 29.5 33.0556 29.5ZM39.4156 29.5C39.3276 29.5 39.2476 29.484 39.1756 29.452C39.1036 29.42 39.0396 29.368 38.9836 29.296L36.1156 25.312L35.6956 24.988L32.8396 21.016C32.7516 20.896 32.7116 20.768 32.7196 20.632C32.7356 20.496 32.7876 20.38 32.8756 20.284C32.9716 20.18 33.0956 20.128 33.2476 20.128C33.4316 20.128 33.5676 20.188 33.6556 20.308L36.3796 24.076L36.7876 24.4L39.8116 28.588C39.8996 28.708 39.9396 28.84 39.9316 28.984C39.9316 29.128 39.8836 29.252 39.7876 29.356C39.6996 29.452 39.5756 29.5 39.4156 29.5Z" fill="white"/>
</svg>
